# Blender v2.78 (sub 0) OBJ File: 'screwdriver.blend'
# www.blender.org
mtllib screwdriver.mtl
o Circle
v 0.000000 5.020148 -1.000000
v -0.707107 5.020148 -0.707107
v -1.000000 5.020148 0.000000
v -0.707107 5.020148 0.707107
v 0.000000 5.020148 1.000000
v 0.707107 5.020148 0.707107
v 1.000000 5.020148 -0.000000
v 0.707107 5.020148 -0.707107
v 0.000000 0.614294 -1.000000
v -0.707107 0.614294 -0.707107
v -1.000000 0.614294 0.000000
v -0.707107 0.614294 0.707107
v 0.000000 0.614294 1.000000
v 0.707107 0.614294 0.707107
v 1.000000 0.614294 -0.000000
v 0.707107 0.614294 -0.707107
v 0.000000 -0.057889 -0.570396
v -0.403331 -0.057889 -0.403331
v -0.570396 -0.057889 0.000000
v -0.403331 -0.057889 0.403331
v 0.000000 -0.057889 0.570396
v 0.403331 -0.057889 0.403331
v 0.570396 -0.057889 -0.000000
v 0.403331 -0.057889 -0.403331
v -0.000005 -0.126454 0.000000
v -1.000000 3.756894 0.000000
v -0.926109 3.539385 0.000000
v -0.926109 1.617453 0.000000
v -1.000000 1.399944 0.000000
v -0.707107 1.399944 0.707107
v -0.654858 1.617453 0.654858
v -0.654858 3.539385 0.654858
v -0.707107 3.756894 0.707107
v 0.000000 3.756894 -1.000000
v -0.000000 3.539385 -0.926109
v -0.000000 1.617453 -0.926109
v 0.000000 1.399944 -1.000000
v -0.707107 1.399944 -0.707107
v -0.654858 1.617453 -0.654858
v -0.654858 3.539385 -0.654858
v -0.707107 3.756894 -0.707107
v 0.707107 3.756894 -0.707107
v 0.654858 3.539385 -0.654858
v 0.654858 1.617453 -0.654858
v 0.707107 1.399944 -0.707107
v 0.707107 3.756894 0.707107
v 0.654858 3.539385 0.654858
v 0.654858 1.617453 0.654858
v 0.707107 1.399944 0.707107
v 1.000000 1.399944 -0.000000
v 0.926109 1.617453 -0.000000
v 0.926109 3.539385 -0.000000
v 1.000000 3.756894 -0.000000
v 0.000000 1.399944 1.000000
v 0.000000 1.617453 0.926109
v 0.000000 3.539385 0.926109
v 0.000000 3.756894 1.000000
v 0.000000 5.303172 -0.594547
v -0.420408 5.303172 -0.420408
v -0.594547 5.303172 0.000000
v -0.420408 5.303172 0.420408
v 0.000000 5.303172 0.594547
v 0.420408 5.303172 0.420408
v 0.594547 5.303172 -0.000000
v 0.420408 5.303172 -0.420408
v 0.000000 5.352308 -0.313361
v -0.221580 5.352308 -0.221580
v -0.313361 5.352308 0.000000
v -0.221580 5.352308 0.221580
v 0.000000 5.352308 0.313361
v 0.221580 5.352308 0.221579
v 0.313361 5.352308 -0.000000
v 0.221580 5.352308 -0.221579
v 0.000000 14.395691 -0.313361
v -0.221580 14.395691 -0.221580
v -0.313361 14.395691 0.000000
v -0.221580 14.395691 0.221580
v 0.000000 14.395691 0.313361
v 0.221580 14.395691 0.221579
v 0.313361 14.395691 -0.000000
v 0.221580 14.395691 -0.221579
v 0.000000 14.632841 -0.107664
v -0.253272 14.632841 -0.107664
v -0.431067 14.618385 0.000000
v -0.253272 14.632841 0.107665
v 0.000000 14.632841 0.107665
v 0.253272 14.632841 0.107665
v 0.431067 14.618385 0.000000
v 0.253272 14.632841 -0.107664
v 0.000000 15.524540 -0.107664
v -0.253272 15.524540 -0.107664
v -0.431067 15.660254 0.000000
v -0.253272 15.524540 0.107665
v 0.000000 15.524540 0.107665
v 0.253272 15.524540 0.107665
v 0.431067 15.660254 0.000000
v 0.253272 15.524540 -0.107664
v 0.000000 15.660254 -0.000004
vt 0.0972 0.1534
vt 0.0222 0.1470
vt 0.0375 0.0664
vt 0.1043 0.0862
vt 0.5395 0.1580
vt 0.4727 0.1578
vt 0.4725 0.0936
vt 0.5339 0.0916
vt 0.4050 0.1534
vt 0.4121 0.0862
vt 0.3020 0.1579
vt 0.2316 0.1580
vt 0.2260 0.0916
vt 0.2977 0.0783
vt 0.1648 0.1578
vt 0.1646 0.0936
vt 0.6099 0.1579
vt 0.6056 0.0783
vt 0.3301 0.1470
vt 0.3454 0.0664
vt 0.2121 0.0157
vt 0.2569 0.0002
vt 0.1225 0.0166
vt 0.1669 0.0209
vt 0.5200 0.0157
vt 0.5648 0.0002
vt 0.3899 0.0002
vt 0.4304 0.0166
vt 0.0820 0.0002
vt 0.4747 0.0209
vt 0.4552 0.5353
vt 0.4946 0.5197
vt 0.4939 0.5754
vt 0.4382 0.5741
vt 0.4382 0.5758
vt 0.4939 0.5758
vt 0.4933 0.6315
vt 0.4543 0.6149
vt 0.5496 0.5771
vt 0.5326 0.6159
vt 0.5335 0.5363
vt 0.5496 0.5754
vt 0.2317 0.5194
vt 0.1545 0.5191
vt 0.1557 0.3962
vt 0.2293 0.3965
vt 0.1563 0.3736
vt 0.2287 0.3733
vt 0.1641 0.1787
vt 0.2315 0.1787
vt 0.3853 0.5163
vt 0.3081 0.5110
vt 0.3180 0.3853
vt 0.3909 0.3930
vt 0.3229 0.3643
vt 0.3926 0.3711
vt 0.3314 0.1712
vt 0.4034 0.1755
vt 0.6156 0.5179
vt 0.5396 0.5194
vt 0.5372 0.3965
vt 0.6131 0.3924
vt 0.5366 0.3733
vt 0.6089 0.3690
vt 0.5394 0.1787
vt 0.6071 0.1790
vt 0.0774 0.5163
vt 0.0830 0.3930
vt 0.0847 0.3711
vt 0.0956 0.1755
vt 0.3077 0.5179
vt 0.3052 0.3924
vt 0.3010 0.3690
vt 0.2992 0.1790
vt 0.4624 0.5191
vt 0.4636 0.3962
vt 0.4641 0.3736
vt 0.4720 0.1787
vt 0.0002 0.5110
vt 0.0102 0.3853
vt 0.0150 0.3643
vt 0.0235 0.1712
vt 0.6528 0.3734
vt 0.6917 0.3095
vt 0.7223 0.3460
vt 0.6999 0.3843
vt 0.7593 0.4998
vt 0.6886 0.4740
vt 0.7192 0.4369
vt 0.7589 0.4521
vt 0.8299 0.4744
vt 0.7993 0.4379
vt 0.8331 0.3100
vt 0.8715 0.3756
vt 0.8233 0.3854
vt 0.8025 0.3471
vt 0.7623 0.2841
vt 0.7627 0.3318
vt 0.6502 0.4083
vt 0.6983 0.3986
vt 0.8688 0.4105
vt 0.8217 0.3996
vt 0.7844 0.3674
vt 0.7623 0.3592
vt 0.7400 0.3673
vt 0.7284 0.3882
vt 0.7372 0.4165
vt 0.7594 0.4247
vt 0.7816 0.4166
vt 0.7954 0.3882
vt 0.7262 0.3957
vt 0.7933 0.3957
vt 0.2798 0.5328
vt 0.2911 0.5328
vt 0.2915 0.9600
vt 0.2800 0.9613
vt 0.2505 0.5328
vt 0.2629 0.5329
vt 0.2614 0.9601
vt 0.2504 0.9586
vt 0.2276 0.5328
vt 0.2390 0.5328
vt 0.2393 0.9600
vt 0.2278 0.9613
vt 0.3027 0.5328
vt 0.3151 0.5329
vt 0.3136 0.9601
vt 0.3026 0.9586
vt 0.2744 0.5329
vt 0.2729 0.9614
vt 0.3266 0.5329
vt 0.3251 0.9614
vt 0.2763 0.9742
vt 0.2647 0.9736
vt 0.2503 0.9742
vt 0.2359 0.9736
vt 0.3285 0.9742
vt 0.3169 0.9736
vt 0.2881 0.9736
vt 0.2765 0.9740
vt 0.2243 0.9740
vt 0.3025 0.9742
vt 0.8965 0.8762
vt 0.9247 0.8751
vt 0.9211 0.9703
vt 0.8957 0.9705
vt 0.8683 0.8750
vt 0.8700 0.9696
vt 0.8224 0.8751
vt 0.8451 0.8761
vt 0.8393 0.9869
vt 0.8188 0.9703
vt 0.7659 0.8750
vt 0.7942 0.8762
vt 0.7934 0.9705
vt 0.7676 0.9696
vt 0.9475 0.8761
vt 0.9416 0.9869
vt 0.8455 0.8758
vt 0.8492 0.9859
vt 0.7432 0.8758
vt 0.7469 0.9859
vt 0.8954 0.9892
vt 0.7931 0.9892
vn -0.6983 0.1570 0.6983
vn -0.9876 0.1570 0.0000
vn -0.9646 -0.2636 0.0000
vn -0.6821 -0.2636 0.6821
vn -0.6983 0.1570 -0.6983
vn 0.0000 0.1570 -0.9876
vn 0.0000 -0.2636 -0.9646
vn -0.6821 -0.2636 -0.6821
vn 0.6983 0.1570 -0.6983
vn 0.6821 -0.2636 -0.6821
vn 0.9876 0.1570 0.0000
vn 0.6983 0.1570 0.6983
vn 0.6821 -0.2636 0.6821
vn 0.9646 -0.2636 0.0000
vn 0.0000 0.1570 0.9876
vn 0.0000 -0.2636 0.9646
vn 0.4242 -0.8000 0.4242
vn 0.5892 -0.8080 0.0000
vn -0.4242 -0.8000 0.4242
vn 0.0000 -0.8080 0.5892
vn -0.4242 -0.8000 -0.4242
vn -0.5892 -0.8080 0.0000
vn 0.4242 -0.8000 -0.4242
vn 0.0000 -0.8080 -0.5892
vn 0.0000 -1.0000 0.0000
vn 0.6412 0.4215 0.6412
vn 0.0000 0.4215 0.9068
vn 0.0000 -0.1570 0.9876
vn 0.6983 -0.1570 0.6983
vn 0.0000 -0.1698 0.9855
vn 0.6968 -0.1698 0.6968
vn 0.0000 0.1698 0.9855
vn 0.6968 0.1698 0.6968
vn 0.6412 0.4215 -0.6412
vn 0.9068 0.4215 0.0000
vn 0.9876 -0.1570 0.0000
vn 0.6983 -0.1570 -0.6983
vn 0.9855 -0.1698 0.0000
vn 0.6968 -0.1698 -0.6968
vn 0.9855 0.1698 0.0000
vn 0.6968 0.1698 -0.6968
vn -0.9068 0.4215 0.0000
vn -0.6412 0.4215 -0.6412
vn -0.6983 -0.1570 -0.6983
vn -0.9876 -0.1570 0.0000
vn -0.6968 -0.1698 -0.6968
vn -0.9855 -0.1698 0.0000
vn -0.6968 0.1698 -0.6968
vn -0.9855 0.1698 0.0000
vn -0.6412 0.4215 0.6412
vn -0.6983 -0.1570 0.6983
vn -0.6968 -0.1698 0.6968
vn -0.6968 0.1698 0.6968
vn 0.0000 0.4215 -0.9068
vn 0.0000 -0.1570 -0.9876
vn 0.0000 -0.1698 -0.9855
vn 0.0000 0.1698 -0.9855
vn -0.3008 0.9050 0.3008
vn -0.4254 0.9050 0.0000
vn -0.3008 0.9050 -0.3008
vn 0.0000 0.9050 -0.4254
vn 0.3008 0.9050 -0.3008
vn 0.4254 0.9050 0.0000
vn 0.3008 0.9050 0.3008
vn 0.0000 0.9050 0.4254
vn 0.4813 0.7325 0.4813
vn 0.0000 0.7325 0.6807
vn -0.4813 0.7325 0.4813
vn -0.6807 0.7325 0.0000
vn -0.4813 0.7325 -0.4813
vn 0.0000 0.7325 -0.6807
vn 0.4813 0.7325 -0.4813
vn 0.6807 0.7325 0.0000
vn 0.5906 0.1667 -0.7895
vn 0.9983 -0.0580 0.0000
vn 0.5906 0.1667 0.7895
vn 0.0000 0.2721 0.9622
vn -0.5906 0.1667 0.7895
vn -0.9983 -0.0580 0.0000
vn -0.5906 0.1667 -0.7895
vn 0.0000 0.2721 -0.9622
vn 0.9978 -0.0660 0.0000
vn 0.4210 0.1047 0.9010
vn 0.0000 0.2860 0.9582
vn -0.4210 0.1047 0.9010
vn -0.9978 -0.0660 0.0000
vn -0.4210 0.1047 -0.9010
vn 0.4210 0.1047 -0.9010
vn 0.0000 0.2860 -0.9582
vn -0.1995 0.2639 -0.9437
vn 0.0000 0.3291 -0.9443
vn 0.1995 0.2639 -0.9437
vn 0.7308 0.6825 0.0000
vn 0.1995 0.2639 0.9437
vn 0.0000 0.3291 0.9443
vn -0.1995 0.2639 0.9437
vn -0.7308 0.6825 0.0000
vn 0.0000 1.0000 0.0000
usemtl ScrewDriver
s 1
f 30/1/1 29/2/2 11/3/3 12/4/4
f 38/5/5 37/6/6 9/7/7 10/8/8
f 37/6/6 45/9/9 16/10/10 9/7/7
f 50/11/11 49/12/12 14/13/13 15/14/14
f 54/15/15 30/1/1 12/4/4 13/16/16
f 29/17/2 38/5/5 10/8/8 11/18/3
f 45/9/9 50/19/11 15/20/14 16/10/10
f 49/12/12 54/15/15 13/16/16 14/13/13
f 15/14/14 14/13/13 22/21/17 23/22/18
f 13/16/16 12/4/4 20/23/19 21/24/20
f 11/18/3 10/8/8 18/25/21 19/26/22
f 16/10/10 15/20/14 23/27/18 24/28/23
f 14/13/13 13/16/16 21/24/20 22/21/17
f 12/4/4 11/3/3 19/29/22 20/23/19
f 10/8/8 9/7/7 17/30/24 18/25/21
f 9/7/7 16/10/10 24/28/23 17/30/24
f 18/31/21 17/32/24 25/33/25 19/34/22
f 19/35/22 25/36/25 21/37/20 20/38/19
f 21/37/20 25/36/25 23/39/18 22/40/17
f 25/33/25 17/32/24 24/41/23 23/42/18
f 6/43/26 5/44/27 57/45/28 46/46/29
f 46/46/29 57/45/28 56/47/30 47/48/31
f 47/48/31 56/47/30 55/49/32 48/50/33
f 48/50/33 55/49/32 54/15/15 49/12/12
f 8/51/34 7/52/35 53/53/36 42/54/37
f 42/54/37 53/53/36 52/55/38 43/56/39
f 43/56/39 52/55/38 51/57/40 44/58/41
f 44/58/41 51/57/40 50/19/11 45/9/9
f 3/59/42 2/60/43 41/61/44 26/62/45
f 26/62/45 41/61/44 40/63/46 27/64/47
f 27/64/47 40/63/46 39/65/48 28/66/49
f 28/66/49 39/65/48 38/5/5 29/17/2
f 5/44/27 4/67/50 33/68/51 57/45/28
f 57/45/28 33/68/51 32/69/52 56/47/30
f 56/47/30 32/69/52 31/70/53 55/49/32
f 55/49/32 31/70/53 30/1/1 54/15/15
f 7/71/35 6/43/26 46/46/29 53/72/36
f 53/72/36 46/46/29 47/48/31 52/73/38
f 52/73/38 47/48/31 48/50/33 51/74/40
f 51/74/40 48/50/33 49/12/12 50/11/11
f 1/75/54 8/51/34 42/54/37 34/76/55
f 34/76/55 42/54/37 43/56/39 35/77/56
f 35/77/56 43/56/39 44/58/41 36/78/57
f 36/78/57 44/58/41 45/9/9 37/6/6
f 2/60/43 1/75/54 34/76/55 41/61/44
f 41/61/44 34/76/55 35/77/56 40/63/46
f 40/63/46 35/77/56 36/78/57 39/65/48
f 39/65/48 36/78/57 37/6/6 38/5/5
f 4/67/50 3/79/42 26/80/45 33/68/51
f 33/68/51 26/80/45 27/81/47 32/69/52
f 32/69/52 27/81/47 28/82/49 31/70/53
f 31/70/53 28/82/49 29/2/2 30/1/1
f 3/83/42 4/84/50 61/85/58 60/86/59
f 1/87/54 2/88/43 59/89/60 58/90/61
f 8/91/34 1/87/54 58/90/61 65/92/62
f 6/93/26 7/94/35 64/95/63 63/96/64
f 4/84/50 5/97/27 62/98/65 61/85/58
f 2/88/43 3/99/42 60/100/59 59/89/60
f 7/101/35 8/91/34 65/92/62 64/102/63
f 5/97/27 6/93/26 63/96/64 62/98/65
f 62/98/65 63/96/64 71/103/66 70/104/67
f 60/86/59 61/85/58 69/105/68 68/106/69
f 58/90/61 59/89/60 67/107/70 66/108/71
f 65/92/62 58/90/61 66/108/71 73/109/72
f 63/96/64 64/95/63 72/110/73 71/103/66
f 61/85/58 62/98/65 70/104/67 69/105/68
f 59/89/60 60/100/59 68/111/69 67/107/70
f 64/102/63 65/92/62 73/109/72 72/112/73
f 72/113/73 73/114/72 81/115/74 80/116/75
f 70/117/67 71/118/66 79/119/76 78/120/77
f 68/121/69 69/122/68 77/123/78 76/124/79
f 66/125/71 67/126/70 75/127/80 74/128/81
f 73/114/72 66/125/71 74/128/81 81/115/74
f 71/118/66 72/129/73 80/130/75 79/119/76
f 69/122/68 70/117/67 78/120/77 77/123/78
f 67/126/70 68/131/69 76/132/79 75/127/80
f 79/119/76 80/130/75 88/133/82 87/134/83
f 77/123/78 78/120/77 86/135/84 85/136/85
f 75/127/80 76/132/79 84/137/86 83/138/87
f 80/116/75 81/115/74 89/139/88 88/140/82
f 78/120/77 79/119/76 87/134/83 86/135/84
f 76/124/79 77/123/78 85/136/85 84/141/86
f 74/128/81 75/127/80 83/138/87 82/142/89
f 81/115/74 74/128/81 82/142/89 89/139/88
f 82/143/89 83/144/87 91/145/90 90/146/91
f 89/147/88 82/143/89 90/146/91 97/148/92
f 87/149/83 88/150/82 96/151/93 95/152/94
f 85/153/85 86/154/84 94/155/95 93/156/96
f 83/144/87 84/157/86 92/158/97 91/145/90
f 88/159/82 89/147/88 97/148/92 96/160/93
f 86/154/84 87/149/83 95/152/94 94/155/95
f 84/161/86 85/153/85 93/156/96 92/162/97
f 91/145/90 92/158/97 98/163/98 90/146/91
f 90/146/91 98/163/98 96/160/93 97/148/92
f 98/164/98 92/162/97 93/156/96 94/155/95
f 96/151/93 98/164/98 94/155/95 95/152/94
