# Blender v2.78 (sub 0) OBJ File: 'hamer.blend'
# www.blender.org
mtllib hamer.mtl
o hamer_Cube.002
v 0.209929 -0.227610 0.236712
v 0.202562 7.776491 0.198652
v 0.209929 -0.227610 -0.232117
v 0.202562 7.776491 -0.170633
v 0.354837 0.054802 -0.356053
v 0.354837 0.054802 0.360649
v 0.314415 3.940233 -0.293756
v 0.314415 3.940233 0.298352
v 0.202562 5.199796 -0.170633
v 0.202562 5.199796 0.198652
v 0.314415 0.357794 -0.293756
v 0.314415 0.357794 0.298352
v 0.202562 8.110854 -0.170633
v 0.202562 8.110854 0.198652
v 0.301975 9.367334 -0.438178
v 0.301975 9.340267 0.472326
v 0.301975 8.770312 -0.438178
v 0.301975 8.712767 0.472326
v 0.285507 7.762260 2.079631
v 0.143222 7.762260 2.087619
v 0.140994 7.729053 2.048522
v 0.284057 7.729053 2.040498
v 0.252447 8.840669 -0.913538
v 0.252447 8.840669 -1.320602
v 0.252447 9.242843 -0.913538
v 0.252447 9.242843 -1.320602
v 0.300971 8.747169 -1.434744
v 0.300971 9.326159 -1.434744
v -0.001538 9.396424 -1.434744
v -0.001538 8.635567 -1.434744
v 0.300971 8.747169 -1.857673
v 0.300971 9.326159 -1.857673
v -0.001538 9.396424 -1.857673
v -0.001538 8.635567 -1.857673
v 0.100207 8.865349 1.332736
v 0.253512 8.664160 1.215948
v 0.094215 8.664160 1.227575
v 0.257411 8.865349 1.321207
v 0.123054 8.365688 1.733688
v 0.269458 8.247647 1.646415
v 0.272302 8.365688 1.723170
v 0.118685 8.247647 1.657005
v 0.072721 8.762632 0.850358
v 0.076222 9.151960 0.911790
v 0.264448 8.762632 0.834581
v 0.241696 9.151960 0.896997
v 0.301975 7.776491 0.017074
v 0.430297 3.940233 0.019508
v 0.301975 5.199796 0.017074
v 0.430297 0.357794 0.019508
v 0.301975 8.110855 0.017074
v 0.301975 9.353802 0.017074
v 0.301975 8.690536 0.017074
v 0.325810 -0.227610 0.019508
v 0.470718 0.054802 0.019508
v 0.346932 9.060583 -0.438178
v 0.301975 9.065029 0.472326
v 0.142108 7.745657 2.068070
v 0.284782 7.745657 2.060065
v 0.359158 9.025012 -0.913538
v 0.359158 9.025012 -1.320602
v 0.418846 9.015995 -1.434744
v 0.418846 9.015995 -1.857673
v 0.255461 8.764754 1.268577
v 0.270880 8.306667 1.684793
v 0.253072 8.957296 0.865789
v 0.074471 8.957296 0.881074
v 0.097211 8.764754 1.280155
v 0.120869 8.306667 1.695346
v 0.301975 9.062806 0.017074
v -0.001538 -0.227610 0.341733
v -0.001538 7.776491 0.286249
v -0.001538 -0.227610 -0.341733
v -0.001538 7.776491 -0.252101
v -0.213006 -0.227610 0.236712
v -0.205638 7.776491 0.198652
v -0.213006 -0.227610 -0.232117
v -0.205638 7.776491 -0.170633
v -0.001538 0.054802 0.522410
v -0.001538 0.054802 -0.522410
v -0.357913 0.054802 -0.356053
v -0.357913 0.054802 0.360649
v -0.001538 3.940233 0.431593
v -0.001538 3.940233 -0.431593
v -0.317492 3.940233 -0.293756
v -0.317492 3.940233 0.298352
v -0.001538 5.199796 0.286249
v -0.001538 5.199796 -0.252101
v -0.205638 5.199796 -0.170633
v -0.205638 5.199796 0.198652
v -0.001538 0.357794 -0.431593
v -0.317492 0.357794 -0.293756
v -0.317492 0.357794 0.298352
v -0.001538 0.357794 0.431593
v -0.001538 8.110855 0.286249
v -0.001538 8.110855 -0.252101
v -0.205638 8.110854 -0.170633
v -0.205638 8.110854 0.198652
v -0.001538 9.417292 0.472326
v -0.001538 9.452862 -0.438178
v -0.305051 9.367334 -0.438178
v -0.305051 9.340267 0.472326
v -0.001538 8.712767 0.472326
v -0.305051 8.770312 -0.438178
v -0.305051 8.712767 0.472326
v -0.001538 8.668304 -0.438178
v -0.288583 7.762260 2.079631
v -0.146298 7.762260 2.087619
v -0.144070 7.729053 2.048522
v -0.287134 7.729053 2.040498
v -0.255523 8.840669 -0.913538
v -0.255523 8.840669 -1.320602
v -0.255523 9.242843 -0.913538
v -0.255523 9.242843 -1.320602
v -0.001538 9.289265 -1.320602
v -0.001538 9.289265 -0.913538
v -0.001538 8.760760 -0.913538
v -0.001538 8.760760 -1.320602
v -0.304048 8.747169 -1.434744
v -0.304048 9.326159 -1.434744
v -0.304048 8.747169 -1.857673
v -0.304048 9.326159 -1.857673
v -0.103284 8.865349 1.332736
v -0.256588 8.664160 1.215948
v -0.097292 8.664160 1.227575
v -0.260488 8.865349 1.321207
v -0.126131 8.365688 1.733688
v -0.272535 8.247647 1.646415
v -0.275378 8.365688 1.723170
v -0.121761 8.247647 1.657005
v -0.075798 8.762632 0.850358
v -0.079298 9.151960 0.911790
v -0.267524 8.762632 0.834581
v -0.244773 9.151960 0.896997
v -0.305051 7.776491 0.017074
v -0.433373 3.940233 0.019508
v -0.305051 5.199796 0.017074
v -0.433373 0.357794 0.019508
v -0.305051 8.110855 0.017074
v -0.001538 9.435077 0.017074
v -0.305051 9.353802 0.017074
v -0.305051 8.690536 0.017074
v -0.328887 -0.227610 0.019508
v -0.473795 0.054802 0.019508
v -0.001538 -0.227610 -0.109889
v -0.350009 9.060583 -0.438178
v -0.305051 9.065029 0.472326
v -0.145184 7.745657 2.068070
v -0.287858 7.745657 2.060065
v -0.362235 9.025012 -0.913538
v -0.362235 9.025012 -1.320602
v -0.421922 9.015995 -1.434744
v -0.421922 9.015995 -1.857673
v -0.001538 9.016779 -1.837647
v -0.258538 8.764754 1.268577
v -0.273957 8.306667 1.684793
v -0.256149 8.957296 0.865789
v -0.001538 9.065029 0.472326
v -0.077548 8.957296 0.881074
v -0.100288 8.764754 1.280155
v -0.123946 8.306667 1.695346
v -0.305051 9.062806 0.017074
vt 0.2845 0.6331
vt 0.2805 0.9582
vt 0.2531 0.9579
vt 0.2566 0.6298
vt 0.2292 0.6275
vt 0.2266 0.9577
vt 0.2007 0.9576
vt 0.2022 0.6263
vt 0.1730 0.9576
vt 0.1730 0.6256
vt 0.8030 0.4547
vt 0.8004 0.4808
vt 0.7800 0.5002
vt 0.7794 0.4647
vt 0.2802 0.9998
vt 0.2528 0.9996
vt 0.7543 0.5004
vt 0.7401 0.5410
vt 0.6971 0.4998
vt 0.7370 0.4828
vt 0.8412 0.4976
vt 0.7960 0.5391
vt 0.8417 0.4382
vt 0.2164 0.0392
vt 0.2114 0.4696
vt 0.1730 0.4692
vt 0.1730 0.0388
vt 0.2539 0.0407
vt 0.2457 0.4713
vt 0.3367 0.0477
vt 0.3255 0.4794
vt 0.2845 0.4742
vt 0.2953 0.0431
vt 0.3457 0.0118
vt 0.3001 0.0062
vt 0.2559 0.0054
vt 0.2166 0.0022
vt 0.1730 0.0002
vt 0.6971 0.5776
vt 0.7293 0.5475
vt 0.7770 0.5414
vt 0.8135 0.5727
vt 0.6971 0.6255
vt 0.4436 0.1649
vt 0.4777 0.1427
vt 0.4853 0.1722
vt 0.4547 0.1808
vt 0.2264 0.9995
vt 0.2006 0.9994
vt 0.1730 0.9993
vt 0.4577 0.1972
vt 0.4405 0.1971
vt 0.4384 0.1892
vt 0.6321 0.6903
vt 0.6278 0.7098
vt 0.5757 0.6908
vt 0.5566 0.6799
vt 0.3547 0.1092
vt 0.3553 0.0756
vt 0.4448 0.0665
vt 0.4591 0.1108
vt 0.3476 0.1970
vt 0.3461 0.1683
vt 0.4134 0.1805
vt 0.4101 0.1971
vt 0.3493 0.1391
vt 0.4196 0.1497
vt 0.5546 0.6843
vt 0.5747 0.6929
vt 0.5739 0.6951
vt 0.5528 0.6898
vt 0.6276 0.7170
vt 0.6270 0.7254
vt 0.6169 0.7419
vt 0.5197 0.0529
vt 0.5297 0.0917
vt 0.5784 0.0347
vt 0.5955 0.0757
vt 0.5379 0.1237
vt 0.6059 0.1116
vt 0.4871 0.1974
vt 0.5434 0.1599
vt 0.5472 0.1978
vt 0.6104 0.1546
vt 0.6119 0.1983
vt 0.6347 0.1549
vt 0.6341 0.1985
vt 0.6177 0.0650
vt 0.6249 0.1069
vt 0.6016 0.0185
vt 0.6979 0.1470
vt 0.7008 0.1992
vt 0.6783 0.0481
vt 0.6890 0.0941
vt 0.6644 0.0002
vt 0.7484 0.0497
vt 0.7671 0.0072
vt 0.7975 0.0299
vt 0.7955 0.0705
vt 0.7596 0.7798
vt 0.7510 0.7995
vt 0.6912 0.7763
vt 0.6993 0.7580
vt 0.7581 0.7538
vt 0.7009 0.7438
vt 0.7506 0.7041
vt 0.7576 0.7271
vt 0.7025 0.7294
vt 0.7038 0.7086
vt 0.7920 0.6799
vt 0.8044 0.7153
vt 0.8115 0.7584
vt 0.8184 0.7928
vt 0.8092 0.8319
vt 0.4167 0.4455
vt 0.4727 0.4964
vt 0.4604 0.5028
vt 0.4095 0.4501
vt 0.4962 0.5453
vt 0.5200 0.5416
vt 0.5524 0.5962
vt 0.5093 0.5962
vt 0.4850 0.4900
vt 0.3481 0.3997
vt 0.3502 0.3973
vt 0.4239 0.4408
vt 0.4287 0.1857
vt 0.3461 0.4021
vt 0.4723 0.5490
vt 0.4663 0.5962
vt 0.7297 0.0925
vt 0.7691 0.0948
vt 0.0614 0.6331
vt 0.0893 0.6298
vt 0.0928 0.9579
vt 0.0654 0.9582
vt 0.1167 0.6275
vt 0.1437 0.6263
vt 0.1452 0.9576
vt 0.1193 0.9577
vt 0.7543 0.4397
vt 0.7823 0.4384
vt 0.0931 0.9996
vt 0.0657 0.9998
vt 0.7363 0.4582
vt 0.6971 0.4402
vt 0.7372 0.4012
vt 0.7985 0.3973
vt 0.1295 0.0392
vt 0.1346 0.4696
vt 0.0920 0.0407
vt 0.1002 0.4713
vt 0.0092 0.0477
vt 0.0506 0.0431
vt 0.0614 0.4742
vt 0.0205 0.4794
vt 0.0002 0.0118
vt 0.0458 0.0062
vt 0.0900 0.0054
vt 0.1293 0.0022
vt 0.7332 0.6570
vt 0.8130 0.6208
vt 0.7770 0.6527
vt 0.4433 0.2291
vt 0.4544 0.2136
vt 0.4849 0.2225
vt 0.4770 0.2517
vt 0.1195 0.9995
vt 0.1453 0.9994
vt 0.4377 0.2048
vt 0.5998 0.4745
vt 0.6071 0.3987
vt 0.6133 0.4198
vt 0.6197 0.4749
vt 0.3545 0.2843
vt 0.4582 0.2832
vt 0.4435 0.3271
vt 0.3549 0.3176
vt 0.4136 0.2137
vt 0.3461 0.2256
vt 0.3493 0.2546
vt 0.4194 0.2442
vt 0.6118 0.3978
vt 0.6175 0.3973
vt 0.6178 0.4190
vt 0.6155 0.4193
vt 0.6268 0.4764
vt 0.6351 0.4776
vt 0.6536 0.4717
vt 0.5280 0.3032
vt 0.5175 0.3416
vt 0.5933 0.3203
vt 0.5755 0.3608
vt 0.5367 0.2715
vt 0.6043 0.2847
vt 0.5428 0.2356
vt 0.6096 0.2420
vt 0.6339 0.2421
vt 0.6232 0.2898
vt 0.6152 0.3314
vt 0.5983 0.3774
vt 0.6968 0.2512
vt 0.6868 0.3038
vt 0.6754 0.3495
vt 0.6605 0.3969
vt 0.7012 0.0292
vt 0.7297 0.0002
vt 0.6575 0.6193
vt 0.6502 0.5556
vt 0.6699 0.5519
vt 0.6787 0.6154
vt 0.6325 0.6118
vt 0.6360 0.5538
vt 0.5859 0.5930
vt 0.6011 0.5485
vt 0.6217 0.5520
vt 0.6067 0.6051
vt 0.5528 0.6278
vt 0.5844 0.6480
vt 0.6247 0.6648
vt 0.6566 0.6795
vt 0.6967 0.6795
vt 0.4167 0.7469
vt 0.4095 0.7422
vt 0.4604 0.6895
vt 0.4727 0.6960
vt 0.4962 0.6470
vt 0.5200 0.6508
vt 0.4850 0.7024
vt 0.4239 0.7516
vt 0.3502 0.7950
vt 0.3481 0.7926
vt 0.4293 0.2084
vt 0.3461 0.7903
vt 0.4723 0.6433
vt 0.7012 0.0651
vn 0.0000 0.0698 -0.9975
vn 0.0000 0.0000 -1.0000
vn 0.6682 0.0000 -0.7440
vn 0.6854 0.0634 -0.7253
vn 0.9982 0.0592 0.0113
vn 1.0000 0.0000 0.0069
vn 0.6725 0.0000 0.7400
vn 0.6814 0.0564 0.7297
vn 0.0000 0.0000 1.0000
vn 0.0000 0.0587 0.9983
vn 0.0000 -0.8215 -0.5702
vn 0.4093 -0.8325 -0.3733
vn 0.5900 -0.8073 0.0132
vn 0.0000 -1.0000 0.0000
vn 0.0000 -0.1971 -0.9803
vn 0.7174 -0.1338 -0.6836
vn 0.3951 -0.8348 0.3834
vn 0.6868 0.3118 0.6566
vn 0.0000 0.3306 0.9438
vn 0.0000 -0.8228 0.5683
vn 0.7013 0.3109 -0.6415
vn 0.9549 0.2965 0.0162
vn 0.0000 0.3298 -0.9441
vn 0.7188 0.1136 0.6858
vn 0.7012 0.0555 0.7107
vn 0.0000 0.0569 0.9984
vn 0.0000 0.1416 0.9899
vn 0.9961 0.0859 0.0183
vn 0.9983 0.0560 0.0178
vn 0.0000 0.1422 -0.9898
vn 0.0000 0.0679 -0.9977
vn 0.7140 0.0621 -0.6973
vn 0.7358 0.1136 -0.6676
vn 0.9997 0.0019 0.0234
vn 0.9999 0.0017 -0.0108
vn 0.7172 0.6914 -0.0874
vn 0.7808 0.6237 0.0365
vn 0.9980 -0.0626 0.0010
vn 0.7141 -0.1375 0.6863
vn 0.0000 -0.2009 0.9796
vn 0.0000 0.9994 0.0344
vn 0.0000 0.9549 0.2969
vn 0.7458 0.6349 0.2018
vn -0.7555 -0.4549 -0.4714
vn 0.6970 -0.4631 -0.5474
vn 0.5677 -0.8147 -0.1177
vn -0.5806 -0.8122 -0.0566
vn 0.0000 -0.7260 -0.6876
vn 0.8571 -0.4447 -0.2599
vn 0.8431 -0.4032 0.3558
vn 0.0000 -0.7167 0.6973
vn 0.9969 -0.0781 0.0042
vn -0.6801 -0.5391 0.4967
vn 0.7278 -0.5360 0.4278
vn 0.6247 -0.1350 0.7691
vn -0.5388 -0.1352 0.8315
vn 0.9993 0.0000 -0.0370
vn 0.7215 0.4066 0.5605
vn -0.6529 0.4125 0.6353
vn 0.0000 -0.9955 -0.0945
vn 0.6692 -0.7403 -0.0629
vn 0.0000 -0.9079 0.4192
vn 0.6179 -0.6945 0.3685
vn 0.9989 -0.0306 -0.0355
vn 0.9500 -0.0213 0.3115
vn 0.0000 0.9913 -0.1317
vn 0.6571 0.7457 -0.1099
vn 0.0000 0.9880 -0.1543
vn 0.5977 0.7166 0.3594
vn 0.0000 0.9303 0.3668
vn 0.6149 0.7275 0.3042
vn 0.0000 0.9416 0.3368
vn 0.6332 -0.7024 0.3250
vn 0.9624 -0.0306 0.2698
vn 0.0000 -0.9323 0.3616
vn 0.5112 0.5861 -0.6286
vn 0.0000 0.7418 -0.6706
vn 0.5251 -0.5566 -0.6438
vn 0.7675 -0.0193 -0.6407
vn 0.0000 -0.7614 -0.6482
vn 0.0000 0.0012 -1.0000
vn 0.6882 0.6047 0.4008
vn -0.6209 0.6283 0.4687
vn -0.6408 0.5450 0.5406
vn 0.6932 0.5430 0.4738
vn 0.9976 0.0222 0.0661
vn 0.9998 0.0147 -0.0142
vn -0.7355 -0.6752 0.0556
vn 0.7498 -0.6612 0.0247
vn 0.7548 -0.5703 -0.3241
vn -0.7881 -0.5539 -0.2683
vn 0.9979 0.0073 0.0641
vn -0.9984 0.0000 0.0569
vn -0.9928 -0.0035 0.1195
vn 0.0000 -0.0387 0.9992
vn -0.6854 0.0634 -0.7253
vn -0.6682 0.0000 -0.7440
vn -0.9982 0.0592 0.0113
vn -0.6814 0.0564 0.7297
vn -0.6725 0.0000 0.7400
vn -1.0000 0.0000 0.0069
vn -0.5900 -0.8073 0.0132
vn -0.4093 -0.8325 -0.3733
vn -0.7174 -0.1338 -0.6836
vn -0.3951 -0.8348 0.3834
vn -0.6868 0.3118 0.6566
vn -0.9549 0.2965 0.0162
vn -0.7013 0.3109 -0.6415
vn -0.7188 0.1136 0.6858
vn -0.7012 0.0555 0.7107
vn -0.9961 0.0859 0.0183
vn -0.9983 0.0560 0.0178
vn -0.7358 0.1136 -0.6676
vn -0.7140 0.0621 -0.6973
vn -0.9997 0.0019 0.0234
vn -0.7808 0.6237 0.0365
vn -0.7172 0.6914 -0.0874
vn -0.9999 0.0017 -0.0108
vn -0.9980 -0.0626 0.0010
vn -0.7141 -0.1375 0.6863
vn -0.7458 0.6349 0.2018
vn 0.7555 -0.4549 -0.4714
vn 0.5806 -0.8122 -0.0566
vn -0.5677 -0.8147 -0.1177
vn -0.6970 -0.4631 -0.5474
vn -0.8571 -0.4447 -0.2599
vn -0.8431 -0.4032 0.3558
vn -0.9969 -0.0781 0.0042
vn 0.6801 -0.5391 0.4967
vn 0.5388 -0.1352 0.8315
vn -0.6247 -0.1350 0.7691
vn -0.7278 -0.5360 0.4278
vn -0.9993 0.0000 -0.0370
vn -0.7215 0.4066 0.5605
vn 0.6529 0.4125 0.6353
vn -0.6692 -0.7403 -0.0629
vn -0.6179 -0.6945 0.3685
vn -0.9989 -0.0306 -0.0355
vn -0.9500 -0.0213 0.3115
vn -0.6571 0.7457 -0.1099
vn -0.5977 0.7166 0.3594
vn -0.6149 0.7275 0.3042
vn -0.9624 -0.0306 0.2698
vn -0.6332 -0.7024 0.3250
vn -0.5112 0.5861 -0.6286
vn -0.7675 -0.0193 -0.6407
vn -0.5251 -0.5566 -0.6438
vn -0.6882 0.6047 0.4008
vn -0.6932 0.5430 0.4738
vn 0.6408 0.5450 0.5406
vn 0.6209 0.6283 0.4687
vn -0.9976 0.0222 0.0661
vn -0.9998 0.0147 -0.0142
vn 0.7355 -0.6752 0.0556
vn 0.7881 -0.5539 -0.2683
vn -0.7548 -0.5703 -0.3241
vn -0.7498 -0.6612 0.0247
vn -0.9979 0.0073 0.0641
vn 0.9984 0.0000 0.0569
vn 0.9928 -0.0035 0.1195
usemtl HAMER
s 1
f 88/1/1 74/2/2 4/3/3 9/4/4
f 49/5/5 47/6/6 2/7/7 10/8/8
f 10/8/8 2/7/7 72/9/9 87/10/10
f 73/11/11 3/12/12 54/13/13 145/14/14
f 4/3/3 74/2/2 96/15/15 13/16/16
f 1/17/17 6/18/18 79/19/19 71/20/20
f 3/12/12 5/21/21 55/22/22 54/13/13
f 73/11/11 80/23/23 5/21/21 3/12/12
f 12/24/24 8/25/25 83/26/26 94/27/27
f 50/28/28 48/29/29 8/25/25 12/24/24
f 91/30/30 84/31/31 7/32/32 11/33/33
f 8/25/25 10/8/8 87/10/10 83/26/26
f 48/29/29 49/5/5 10/8/8 8/25/25
f 84/31/31 88/1/1 9/4/4 7/32/32
f 80/34/23 91/30/30 11/33/33 5/35/21
f 5/35/21 11/33/33 50/28/28 55/36/22
f 6/37/18 12/24/24 94/27/27 79/38/19
f 6/39/18 55/40/22 5/41/21 80/42/23 79/43/19
f 70/44/34 56/45/35 15/46/36 52/47/37
f 47/6/6 4/3/3 13/16/16 51/48/38
f 72/9/9 2/7/7 14/49/39 95/50/40
f 52/47/37 140/51/41 99/52/42 16/53/43
f 42/54/44 40/55/45 22/56/46 21/57/47
f 13/58/16 96/59/15 106/60/48 17/61/49
f 95/62/40 14/63/39 18/64/50 103/65/51
f 51/66/38 13/58/16 17/61/49 53/67/52
f 58/68/53 59/69/54 19/70/55 20/71/56
f 65/72/57 41/73/58 19/70/55 59/69/54
f 41/73/58 39/74/59 20/71/56 19/70/55
f 17/61/49 106/60/48 117/75/60 23/76/61
f 23/76/61 117/75/60 118/77/62 24/78/63
f 56/45/35 17/61/49 23/76/61 60/79/64
f 60/79/64 23/76/61 24/78/63 61/80/65
f 100/81/66 15/46/36 25/82/67 116/83/68
f 116/83/68 25/82/67 26/84/69 115/85/70
f 115/85/70 26/84/69 28/86/71 29/87/72
f 61/80/65 24/78/63 27/88/73 62/89/74
f 24/78/63 118/77/62 30/90/75 27/88/73
f 29/87/72 28/86/71 32/91/76 33/92/77
f 62/89/74 27/88/73 31/93/78 63/94/79
f 27/88/73 30/90/75 34/95/80 31/93/78
f 154/96/81 33/97/77 32/98/76 63/99/79
f 46/100/82 44/101/83 35/102/84 38/103/85
f 66/104/86 46/100/82 38/103/85 64/105/87
f 43/106/88 45/107/89 36/108/90 37/109/91
f 38/103/85 35/102/84 39/74/59 41/73/58
f 64/105/87 38/103/85 41/73/58 65/72/57
f 37/109/91 36/108/90 40/55/45 42/54/44
f 103/110/51 18/111/50 45/107/89 43/106/88
f 57/112/92 16/113/43 46/100/82 66/104/86
f 16/113/43 99/114/42 44/101/83 46/100/82
f 69/115/93 68/116/93 37/117/91 42/118/44
f 67/119/94 44/120/83 99/121/42 158/122/95
f 68/116/93 35/123/84 44/120/83 67/119/94
f 69/115/93 58/124/53 20/125/56 39/126/59
f 14/63/39 51/66/38 53/67/52 18/64/50
f 15/46/36 100/81/66 140/51/41 52/47/37
f 2/7/7 47/6/6 51/48/38 14/49/39
f 57/127/92 70/44/34 52/47/37 16/53/43
f 7/32/32 9/4/4 49/5/5 48/29/29
f 11/33/33 7/32/32 48/29/29 50/28/28
f 9/4/4 4/3/3 47/6/6 49/5/5
f 55/36/22 50/28/28 12/24/24 6/37/18
f 54/13/13 55/22/22 6/18/18 1/17/17
f 145/14/14 54/13/13 1/17/17 71/20/20
f 18/64/50 53/67/52 70/44/34 57/127/92
f 42/118/44 21/128/47 58/124/53 69/115/93
f 37/117/91 68/116/93 67/119/94 43/129/88
f 43/129/88 67/119/94 158/122/95 103/130/51
f 39/126/59 35/123/84 68/116/93 69/115/93
f 18/111/50 57/112/92 66/104/86 45/107/89
f 36/108/90 64/105/87 65/72/57 40/55/45
f 45/107/89 66/104/86 64/105/87 36/108/90
f 34/131/80 154/96/81 63/99/79 31/132/78
f 28/86/71 62/89/74 63/94/79 32/91/76
f 26/84/69 61/80/65 62/89/74 28/86/71
f 25/82/67 60/79/64 61/80/65 26/84/69
f 15/46/36 56/45/35 60/79/64 25/82/67
f 40/55/45 65/72/57 59/69/54 22/56/46
f 21/57/47 22/56/46 59/69/54 58/68/53
f 53/67/52 17/61/49 56/45/35 70/44/34
f 88/133/1 89/134/96 78/135/97 74/136/2
f 137/137/98 90/138/99 76/139/100 135/140/101
f 90/138/99 87/10/10 72/9/9 76/139/100
f 73/11/11 145/14/14 143/141/102 77/142/103
f 78/135/97 97/143/104 96/144/15 74/136/2
f 75/145/105 71/20/20 79/19/19 82/146/106
f 77/142/103 143/141/102 144/147/107 81/148/108
f 73/11/11 77/142/103 81/148/108 80/23/23
f 93/149/109 94/27/27 83/26/26 86/150/110
f 138/151/111 93/149/109 86/150/110 136/152/112
f 91/153/30 92/154/113 85/155/114 84/156/31
f 86/150/110 83/26/26 87/10/10 90/138/99
f 136/152/112 86/150/110 90/138/99 137/137/98
f 84/156/31 85/155/114 89/134/96 88/133/1
f 80/157/23 81/158/108 92/154/113 91/153/30
f 81/158/108 144/159/107 138/151/111 92/154/113
f 82/160/106 79/38/19 94/27/27 93/149/109
f 82/161/106 79/43/19 80/42/23 81/162/108 144/163/107
f 162/164/115 141/165/116 101/166/117 146/167/118
f 135/140/101 139/168/119 97/143/104 78/135/97
f 72/9/9 95/50/40 98/169/120 76/139/100
f 141/165/116 102/170/121 99/52/42 140/51/41
f 130/171/122 109/172/123 110/173/124 128/174/125
f 97/175/104 104/176/126 106/177/48 96/178/15
f 95/62/40 103/65/51 105/179/127 98/180/120
f 139/181/119 142/182/128 104/176/126 97/175/104
f 148/183/129 108/184/130 107/185/131 149/186/132
f 156/187/133 149/186/132 107/185/131 129/188/134
f 129/188/134 107/185/131 108/184/130 127/189/135
f 104/176/126 111/190/136 117/191/60 106/177/48
f 111/190/136 112/192/137 118/193/62 117/191/60
f 146/167/118 150/194/138 111/190/136 104/176/126
f 150/194/138 151/195/139 112/192/137 111/190/136
f 100/81/66 116/83/68 113/196/140 101/166/117
f 116/83/68 115/85/70 114/197/141 113/196/140
f 115/85/70 29/87/72 120/198/142 114/197/141
f 151/195/139 152/199/143 119/200/144 112/192/137
f 112/192/137 119/200/144 30/201/75 118/193/62
f 29/87/72 33/92/77 122/202/145 120/198/142
f 152/199/143 153/203/146 121/204/147 119/200/144
f 119/200/144 121/204/147 34/205/80 30/201/75
f 154/96/81 153/206/146 122/207/145 33/97/77
f 134/208/148 126/209/149 123/210/150 132/211/151
f 157/212/152 155/213/153 126/209/149 134/208/148
f 131/214/154 125/215/155 124/216/156 133/217/157
f 126/209/149 129/188/134 127/189/135 123/210/150
f 155/213/153 156/187/133 129/188/134 126/209/149
f 125/215/155 130/171/122 128/174/125 124/216/156
f 103/218/51 131/214/154 133/217/157 105/219/127
f 147/220/158 157/212/152 134/208/148 102/221/121
f 102/221/121 134/208/148 132/211/151 99/222/42
f 161/223/159 130/224/122 125/225/155 160/226/159
f 159/227/160 158/122/95 99/121/42 132/228/151
f 160/226/159 159/227/160 132/228/151 123/229/150
f 161/223/159 127/230/135 108/231/130 148/232/129
f 98/180/120 105/179/127 142/182/128 139/181/119
f 101/166/117 141/165/116 140/51/41 100/81/66
f 76/139/100 98/169/120 139/168/119 135/140/101
f 147/233/158 102/170/121 141/165/116 162/164/115
f 85/155/114 136/152/112 137/137/98 89/134/96
f 92/154/113 138/151/111 136/152/112 85/155/114
f 89/134/96 137/137/98 135/140/101 78/135/97
f 144/159/107 82/160/106 93/149/109 138/151/111
f 143/141/102 75/145/105 82/146/106 144/147/107
f 145/14/14 71/20/20 75/145/105 143/141/102
f 105/179/127 147/233/158 162/164/115 142/182/128
f 130/224/122 161/223/159 148/232/129 109/234/123
f 125/225/155 131/235/154 159/227/160 160/226/159
f 131/235/154 103/130/51 158/122/95 159/227/160
f 127/230/135 161/223/159 160/226/159 123/229/150
f 105/219/127 133/217/157 157/212/152 147/220/158
f 124/216/156 128/174/125 156/187/133 155/213/153
f 133/217/157 124/216/156 155/213/153 157/212/152
f 34/131/80 121/236/147 153/206/146 154/96/81
f 120/198/142 122/202/145 153/203/146 152/199/143
f 114/197/141 120/198/142 152/199/143 151/195/139
f 113/196/140 114/197/141 151/195/139 150/194/138
f 101/166/117 113/196/140 150/194/138 146/167/118
f 128/174/125 110/173/124 149/186/132 156/187/133
f 109/172/123 148/183/129 149/186/132 110/173/124
f 142/182/128 162/164/115 146/167/118 104/176/126
