# Blender v2.78 (sub 0) OBJ File: 'Nail bender.blend'
# www.blender.org
mtllib Nail bender.mtl
o nail_Circle.001
v 0.000000 2.694767 -0.197215
v -0.139452 2.694767 -0.139452
v -0.197215 2.694767 0.000000
v -0.139452 2.694767 0.139452
v 0.000000 2.694767 0.197215
v 0.139452 2.694767 0.139452
v 0.197215 2.694767 -0.000000
v 0.139452 2.694767 -0.139452
v 0.000000 2.675412 -0.197215
v -0.139452 2.675412 -0.139452
v -0.197215 2.675412 0.000000
v -0.139452 2.675412 0.139452
v 0.000000 2.675412 0.197215
v 0.139452 2.675412 0.139452
v 0.197215 2.675412 -0.000000
v 0.139452 2.675412 -0.139452
v 0.000004 2.702027 0.000000
v 0.000000 2.668151 -0.067874
v -0.047994 2.668151 -0.047994
v -0.067874 2.668151 -0.000000
v -0.047994 2.668151 0.047994
v 0.000000 2.668151 0.067874
v 0.047995 2.668151 0.047994
v 0.067875 2.668151 -0.000000
v 0.047995 2.668151 -0.047994
v 0.000000 0.282222 -0.075914
v -0.053679 0.282222 -0.053679
v -0.075914 0.282222 -0.000000
v -0.053679 0.282222 0.053679
v 0.000000 0.282222 0.075914
v 0.053680 0.282222 0.053679
v 0.075914 0.282222 -0.000000
v 0.053680 0.282222 -0.053679
v 0.000000 -0.003507 -0.000008
vt 0.3083 0.1385
vt 0.2564 0.1600
vt 0.2537 0.1534
vt 0.3055 0.1319
vt 0.1952 0.1346
vt 0.1737 0.0828
vt 0.1804 0.0800
vt 0.2018 0.1319
vt 0.1991 0.0215
vt 0.2509 0.0001
vt 0.2537 0.0067
vt 0.2018 0.0282
vt 0.3122 0.0254
vt 0.3337 0.0773
vt 0.3270 0.0800
vt 0.3055 0.0282
vt 0.3337 0.0828
vt 0.3122 0.1346
vt 0.2509 0.1600
vt 0.1991 0.1385
vt 0.1737 0.0773
vt 0.1952 0.0254
vt 0.2564 0.0001
vt 0.3083 0.0215
vt 0.2695 0.2956
vt 0.2134 0.2956
vt 0.2414 0.2279
vt 0.3092 0.2559
vt 0.2789 0.0801
vt 0.2715 0.0622
vt 0.2695 0.1602
vt 0.1737 0.1998
vt 0.2134 0.1602
vt 0.1737 0.2559
vt 0.3092 0.1998
vt 0.2715 0.0979
vt 0.2359 0.0979
vt 0.2537 0.1052
vt 0.2359 0.0622
vt 0.2285 0.0800
vt 0.2537 0.0548
vt 0.0290 0.9997
vt 0.0096 0.9999
vt 0.0001 0.1098
vt 0.0217 0.1096
vt 0.1441 0.9997
vt 0.1247 0.9996
vt 0.1302 0.1074
vt 0.1519 0.1096
vt 0.1065 0.9995
vt 0.1085 0.1094
vt 0.0871 0.9995
vt 0.0678 0.9995
vt 0.0651 0.1094
vt 0.0868 0.1094
vt 0.0484 0.9996
vt 0.0434 0.1095
vt 0.1635 0.9999
vt 0.1736 0.1098
vt 0.1307 0.0001
vt 0.1679 0.0973
vt 0.0605 0.0769
vt 0.0925 0.0969
vt 0.0724 0.0935
vt 0.0377 0.0467
vt 0.0428 0.0665
vn 0.5555 0.6188 -0.5555
vn 0.7829 0.6221 0.0000
vn 0.7902 -0.6128 0.0000
vn 0.5588 -0.6128 -0.5588
vn 0.5555 0.6188 0.5555
vn 0.0000 0.6221 0.7829
vn 0.0000 -0.6128 0.7902
vn 0.5588 -0.6128 0.5588
vn -0.5555 0.6188 0.5555
vn -0.7829 0.6221 0.0000
vn -0.7902 -0.6128 0.0000
vn -0.5588 -0.6128 0.5588
vn -0.5555 0.6188 -0.5555
vn 0.0000 0.6221 -0.7829
vn 0.0000 -0.6128 -0.7902
vn -0.5588 -0.6128 -0.5588
vn 0.0000 1.0000 0.0000
vn 0.0000 -0.7811 -0.6244
vn -0.4415 -0.7811 -0.4415
vn 0.4415 -0.7811 -0.4415
vn 0.4415 -0.7811 0.4415
vn 0.6244 -0.7811 0.0000
vn -0.4415 -0.7811 0.4415
vn 0.0000 -0.7811 0.6244
vn -0.6244 -0.7811 0.0000
vn -0.9886 -0.1502 0.0000
vn -0.7025 -0.1142 0.7025
vn 0.0000 -0.1502 -0.9886
vn -0.7025 -0.1142 -0.7025
vn 0.7025 -0.1142 -0.7025
vn 0.7025 -0.1142 0.7025
vn 0.9886 -0.1502 0.0000
vn 0.0000 -0.1502 0.9886
vn 0.0000 -1.0000 0.0000
usemtl Nail
s 1
f 8/1/1 7/2/2 15/3/3 16/4/4
f 6/5/5 5/6/6 13/7/7 14/8/8
f 4/9/9 3/10/10 11/11/11 12/12/12
f 2/13/13 1/14/14 9/15/15 10/16/16
f 1/17/14 8/18/1 16/4/4 9/15/15
f 7/19/2 6/20/5 14/8/8 15/3/3
f 5/21/6 4/22/9 12/12/12 13/7/7
f 3/23/10 2/24/13 10/16/16 11/11/11
f 2/25/13 3/26/10 17/27/17 1/28/14
f 10/16/16 9/15/15 18/29/18 19/30/19
f 7/31/2 17/27/17 5/32/6 6/33/5
f 5/32/6 17/27/17 3/26/10 4/34/9
f 1/28/14 17/27/17 7/31/2 8/35/1
f 9/15/15 16/4/4 25/36/20 18/29/18
f 15/3/3 14/8/8 23/37/21 24/38/22
f 13/7/7 12/12/12 21/39/23 22/40/24
f 11/11/11 10/16/16 19/30/19 20/41/25
f 16/4/4 15/3/3 24/38/22 25/36/20
f 14/8/8 13/7/7 22/40/24 23/37/21
f 12/12/12 11/11/11 20/41/25 21/39/23
f 21/42/23 20/43/25 28/44/26 29/45/27
f 19/46/19 18/47/18 26/48/28 27/49/29
f 18/47/18 25/50/20 33/51/30 26/48/28
f 24/52/22 23/53/21 31/54/31 32/55/32
f 22/56/24 21/42/23 29/45/27 30/57/33
f 20/58/25 19/46/19 27/49/29 28/59/26
f 25/50/20 24/52/22 32/55/32 33/51/30
f 23/53/21 22/56/24 30/57/33 31/54/31
f 27/49/29 26/48/28 34/60/34 28/61/26
f 30/62/33 34/60/34 32/63/32 31/64/31
f 32/63/32 34/60/34 26/48/28 33/51/30
f 28/65/26 34/60/34 30/62/33 29/66/27
